<svg width="49" height="49" viewBox="0 0 49 49" fill="none" xmlns="http://www.w3.org/2000/svg">
<rect width="49" height="49" rx="5" fill="white"/>
<mask id="mask0_1_1262" style="mask-type:luminance" maskUnits="userSpaceOnUse" x="12" y="13" width="24" height="24">
<path d="M12 12.9998H35.5403V36.54H12V12.9998Z" fill="white"/>
</mask>
<g mask="url(#mask0_1_1262)">
<path d="M21.1192 26.5614C22.5454 25.7164 23.3248 24.8468 23.3507 23.3847C23.3507 22.2407 22.42 21.3099 21.276 21.3099C20.132 21.3099 19.2013 22.2407 19.2013 23.3847V24.0743H20.5806V23.3847C20.5806 23.0012 20.8926 22.6893 21.276 22.6893C21.6595 22.6893 21.9714 23.0012 21.9714 23.3847C21.9694 24.5276 21.0931 24.9488 20.3817 25.3958C19.6411 25.8613 19.2012 26.6651 19.2012 27.5398V28.2295H23.3506V26.8502H20.8074C20.8911 26.7375 20.9939 26.6357 21.1192 26.5614Z" fill="#838383"/>
<path d="M28.9426 24.4486H28.2472V22.46H26.8679V24.4486H25.6428L26.289 21.4694L24.9411 21.177L23.9321 25.8279H26.8679V28.2285H28.2472V25.8279H28.9426V24.4486Z" fill="#838383"/>
<path d="M35.5405 24.7699C35.5405 31.2701 30.2706 36.54 23.7704 36.54C20.5202 36.54 17.5777 35.2228 15.4476 33.0927L14.4186 34.1216L13.9487 33.9451L13.6494 29.5083L13.9432 29.2145L18.38 29.5134C18.4632 29.7354 18.4733 29.7621 18.5565 29.9837L17.5285 31.0118C19.1257 32.6095 21.3326 33.5975 23.7704 33.5975C28.6458 33.5975 32.598 29.6453 32.598 24.7699H35.5405Z" fill="#838383"/>
<path d="M33.8906 20.0321L33.5968 20.3258L29.16 20.0265C29.0768 19.8049 29.0667 19.7783 28.9835 19.5562L30.012 18.5277V18.5272C28.4147 16.93 26.2078 15.9419 23.7701 15.9419C18.8947 15.9419 14.9425 19.8941 14.9425 24.7695H12C12 18.2693 17.2699 12.9994 23.7701 12.9994C27.0203 12.9994 29.9628 14.3166 32.0929 16.4468L33.121 15.4187C33.343 15.5019 33.3697 15.5116 33.5913 15.5953L33.8906 20.0321Z" fill="#838383"/>
</g>
</svg>
