<svg width="49" height="49" viewBox="0 0 49 49" fill="none" xmlns="http://www.w3.org/2000/svg">
<rect width="49" height="49" rx="5" fill="white"/>
<path d="M32.0552 24.9847L32.0547 24.9843L27.7362 21.0259C27.2658 20.5947 26.7096 20.2904 26.1151 20.0971C27.1016 19.3838 27.751 18.2311 27.751 16.9234C27.751 14.7601 25.9909 13 23.8276 13C21.6643 13 19.9043 14.7601 19.9043 16.9234C19.9043 18.2311 20.5537 19.3838 21.5402 20.097C20.9457 20.2903 20.3895 20.5947 19.9191 21.0259L15.6001 24.9847C15.4112 25.1585 15.2603 25.3696 15.1571 25.6046C15.0538 25.8396 15.0003 26.0935 15 26.3502C15 27.3717 15.8314 28.2031 16.888 28.2031C17.3755 28.2031 17.853 28.0054 18.1979 27.6605L19.956 25.9024C20.0116 26.501 20.1117 27.081 20.2553 27.638L18.489 30.0901C17.8027 31.0049 17.7682 32.2582 18.4024 33.2098L20.0982 35.7534C20.4263 36.2463 20.9756 36.5403 21.5719 36.5403C22.5451 36.5403 23.3372 35.7482 23.3372 34.775V34.5355C23.3372 34.1366 23.1998 33.7448 22.9507 33.4326L21.5839 31.7247L22.355 31.1466C23.2879 31.797 24.3674 31.797 25.3004 31.1466L26.071 31.7247L24.7046 33.433C24.455 33.7463 24.3187 34.1349 24.3181 34.5355V34.775C24.3181 35.7481 25.1103 36.5403 26.0878 36.5403C26.3785 36.5407 26.6648 36.4691 26.9211 36.3318C27.1774 36.1946 27.3958 35.9961 27.5567 35.7539L29.2722 33.1806C29.8948 32.2472 29.8608 31.0163 29.1932 30.1255L27.4001 27.6374C27.5437 27.0809 27.6438 26.5009 27.6994 25.9023L29.4575 27.6604C29.8024 28.0053 30.2798 28.2031 30.8024 28.2031C31.8239 28.2031 32.6553 27.3717 32.6553 26.3501C32.655 26.0934 32.6015 25.8396 32.4982 25.6046C32.3949 25.3696 32.244 25.1586 32.0552 24.9847ZM23.8276 30.6553C22.8046 30.6553 21.8238 29.4958 21.2927 27.7127H26.3626C25.8315 29.4958 24.8506 30.6553 23.8276 30.6553Z" fill="#838383"/>
</svg>
