<svg width="49" height="49" viewBox="0 0 49 49" fill="none" xmlns="http://www.w3.org/2000/svg">
<rect width="49" height="49" rx="5" fill="white"/>
<path d="M25.8851 14.2165L22.7466 14.2167C21.8841 14.2167 21.1775 14.9233 21.1775 15.7859L21.1775 17.3552L20.3929 17.3551C19.5304 17.3551 18.8238 18.0617 18.8238 18.9242L18.8233 28.3408C18.8233 29.2033 19.5299 29.9099 20.3924 29.9099L28.24 29.9095C29.1024 29.9096 29.809 29.203 29.809 28.3404L29.8082 18.9246C29.8093 18.0608 29.1017 17.3552 28.239 17.3554L27.4546 17.3554L27.4546 15.786C27.4553 14.9221 26.7482 14.217 25.8851 14.2165ZM26.6701 22.8479L25.1992 26.7714L23.5233 26.7708L24.4059 24.4178L21.9621 24.4176L23.4339 20.4936L25.1098 20.4942L24.2266 22.8479L26.6701 22.8479ZM26.671 31.4788L21.9621 31.479L21.9621 33.049L23.533 33.0485L23.533 37.8494L25.1026 37.8477L25.1021 33.0486L26.6703 33.0485L26.671 31.4788Z" fill="#838383"/>
</svg>
