<svg width="21" height="21" viewBox="0 0 21 21" fill="none" xmlns="http://www.w3.org/2000/svg">
<path d="M16.6045 3.88574C16.3234 3.88574 16.0947 4.11449 16.0947 4.39557C16.0947 4.67665 16.3234 4.90539 16.6045 4.90539C16.8856 4.90539 17.1143 4.67669 17.1143 4.39557C17.1143 4.11445 16.8856 3.88574 16.6045 3.88574ZM10.5001 5.98021C8.00791 5.98021 5.98035 8.00777 5.98035 10.5C5.98035 12.9922 8.00791 15.0198 10.5001 15.0198C12.9923 15.0198 15.0199 12.9922 15.0199 10.5C15.0199 8.00781 12.9923 5.98021 10.5001 5.98021Z" fill="#FBFAFF"/>
<path d="M15.2432 0H5.75683C2.58251 0 0 2.58251 0 5.75687V15.2432C0 18.4175 2.58251 21 5.75683 21H15.2432C18.4175 21 21 18.4175 21 15.2432V5.75687C21 2.58251 18.4175 0 15.2432 0ZM10.5 16.2599C7.32396 16.2599 4.74013 13.676 4.74013 10.5C4.74013 7.32396 7.324 4.74018 10.5 4.74018C13.676 4.74018 16.2599 7.324 16.2599 10.5C16.2599 13.676 13.676 16.2599 10.5 16.2599ZM16.6044 6.14562C15.6395 6.14562 14.8544 5.36058 14.8544 4.39564C14.8544 3.43071 15.6395 2.64563 16.6044 2.64563C17.5693 2.64563 18.3544 3.43067 18.3544 4.3956C18.3544 5.36054 17.5693 6.14562 16.6044 6.14562Z" fill="#FBFAFF"/>
</svg>
