<svg width="23" height="23" viewBox="0 0 23 23" fill="none" xmlns="http://www.w3.org/2000/svg">
<path d="M11.5 0C5.14971 0 0 5.14971 0 11.5C0 17.8503 5.14971 23 11.5 23C17.8503 23 23 17.8503 23 11.5C23 5.14971 17.8503 0 11.5 0ZM8.15826 17.3848H5.35747V8.95859H8.15822L8.15826 17.3848ZM6.75791 7.80796H6.73967C5.79982 7.80796 5.19198 7.161 5.19198 6.3524C5.19198 5.52557 5.81842 4.89648 6.77656 4.89648C7.73465 4.89648 8.32425 5.52557 8.34249 6.3524C8.34249 7.161 7.73465 7.80801 6.75791 7.80801V7.80796ZM18.2573 17.3848H15.4569V12.8769C15.4569 11.7441 15.0513 10.9714 14.038 10.9714C13.2643 10.9714 12.8035 11.4926 12.601 11.9957C12.5269 12.1758 12.5089 12.4274 12.5089 12.6792V17.3848H9.70825C9.70825 17.3848 9.74495 9.74908 9.70825 8.95859H12.5089V10.1516C12.881 9.57752 13.547 8.76084 15.0329 8.76084C16.8756 8.76084 18.2573 9.96511 18.2573 12.5532V17.3848Z" fill="#FBFAFF"/>
</svg>
