<svg width="25" height="18" viewBox="0 0 25 18" fill="none" xmlns="http://www.w3.org/2000/svg">
<path d="M24.4849 2.73895C24.1968 1.66793 23.3524 0.823673 22.2815 0.535274C20.3252 -3.7253e-08 12.4997 0 12.4997 0C12.4997 0 4.67454 0 2.71821 0.515001C1.66793 0.803088 0.802931 1.66813 0.514845 2.73895C0 4.69513 0 8.75205 0 8.75205C0 8.75205 0 12.8294 0.514845 14.7651C0.803205 15.8359 1.64735 16.6802 2.71836 16.9686C4.69513 17.504 12.5 17.504 12.5 17.504C12.5 17.504 20.3252 17.504 22.2815 16.989C23.3525 16.7008 24.1968 15.8565 24.4852 14.7857C24.9999 12.8293 24.9999 8.7726 24.9999 8.7726C24.9999 8.7726 25.0205 4.69509 24.4849 2.73895ZM10.0082 12.4999V5.00407L16.5155 8.75197L10.0082 12.4999Z" fill="#FBFAFF"/>
</svg>
