<svg width="19" height="19" viewBox="0 0 19 19" fill="none" xmlns="http://www.w3.org/2000/svg">
<g clip-path="url(#clip0_143_939)">
<path fill-rule="evenodd" clip-rule="evenodd" d="M15.5582 14.7196L13.0226 13.2558C12.5299 12.9714 11.8942 13.1408 11.6099 13.634L11.5098 13.8076C11.2565 14.2471 10.8667 14.5271 10.3699 14.6289C9.87502 14.7303 9.40303 14.6242 8.99898 14.3211C8.16966 13.6989 7.38621 13.0119 6.65322 12.2789C5.92039 11.5461 5.23342 10.7628 4.61143 9.93351C4.30828 9.52935 4.20182 9.05735 4.3032 8.56231C4.40495 8.06553 4.68565 7.67636 5.12484 7.42287L5.29825 7.32282C5.53875 7.18403 5.70712 6.96201 5.77904 6.69404C5.85062 6.42726 5.81507 6.14942 5.67691 5.91014L4.21295 3.37457C3.953 2.92432 3.41658 2.74564 2.93397 2.93085L2.90247 2.94295C2.40505 3.13377 1.03412 3.63452 0.6657 4.00294C-0.423794 5.09247 0.0423735 7.0635 0.528432 8.31776C1.37968 10.5144 2.99442 12.6287 4.64921 14.2832C6.30376 15.9376 8.41792 17.5528 10.6144 18.4041C11.3764 18.6994 12.234 18.9325 13.0567 18.9325C13.7452 18.9325 14.4305 18.7658 14.9295 18.2668C15.2807 17.9156 15.8017 16.5017 15.9925 16.0216L16.0048 15.9907C16.1953 15.5114 16.0035 14.9767 15.5582 14.7196ZM14.7772 4.77304C14.8942 4.81501 14.9954 4.89208 15.0669 4.99373C15.1384 5.09538 15.1768 5.21663 15.1768 5.34092V8.22807H15.2892C15.6221 8.22807 15.8925 8.49841 15.8925 8.83132C15.8925 9.1646 15.6225 9.43457 15.2892 9.43457H15.1768V10.1024C15.1768 10.4357 14.9065 10.7055 14.5736 10.7055C14.2405 10.7055 13.9705 10.4357 13.9705 10.1024V9.43457H11.701C11.5867 9.43456 11.4748 9.4021 11.3782 9.34096C11.2816 9.27982 11.2044 9.19251 11.1555 9.08919C11.1067 8.98582 11.0883 8.87071 11.1023 8.75726C11.1164 8.64382 11.1624 8.5367 11.235 8.44839L14.1076 4.95743C14.1867 4.86151 14.2934 4.79233 14.4132 4.75933C14.5331 4.72632 14.6602 4.73111 14.7772 4.77304ZM13.9705 8.22811H12.9788L13.9705 7.0232V8.22811ZM9.88196 7.03704C9.99277 6.63103 9.92768 6.32866 9.6874 6.13855C9.408 5.91768 8.94276 5.87853 8.62796 6.04997C8.40137 6.1734 8.30552 6.38147 8.3345 6.68647C8.36668 7.01815 8.12376 7.31303 7.79207 7.34468C7.4602 7.37685 7.16589 7.13356 7.13386 6.80225C7.05757 6.0096 7.39174 5.34905 8.05065 4.99016C8.79351 4.58612 9.77453 4.66898 10.4361 5.19274C11.0632 5.68875 11.2855 6.47714 11.0458 7.35481C10.8825 7.9529 10.3177 8.39328 9.72028 8.85993C9.46526 9.05876 9.19421 9.27025 8.94844 9.49914H10.7013C11.0344 9.49914 11.3044 9.76944 11.3044 10.1024C11.3044 10.4357 11.0344 10.7055 10.7013 10.7055H7.72042C7.61822 10.7055 7.51768 10.6796 7.42825 10.6301C7.33881 10.5806 7.26341 10.5093 7.20912 10.4227C7.15487 10.3361 7.12352 10.2371 7.11801 10.135C7.11251 10.0329 7.13303 9.93113 7.17765 9.83917C7.58812 8.99352 8.35873 8.39202 8.97783 7.90882C9.35482 7.61435 9.82415 7.24816 9.88196 7.03704ZM19 7.92396C19 10.0224 18.1826 11.995 16.6988 13.479C16.6428 13.5351 16.5763 13.5796 16.5031 13.6099C16.4299 13.6402 16.3514 13.6558 16.2722 13.6558C16.193 13.6558 16.1145 13.6402 16.0414 13.6099C15.9682 13.5796 15.9017 13.5351 15.8457 13.479C15.6101 13.2434 15.6101 12.8613 15.8457 12.6257C17.1015 11.3699 17.7935 9.69994 17.7935 7.92396C17.7935 4.25692 14.8105 1.27388 11.1434 1.27388C9.36726 1.27388 7.69744 1.96571 6.44151 3.22149C6.20587 3.45714 5.82401 3.45714 5.58837 3.22149C5.35273 2.98585 5.35273 2.60399 5.58837 2.36835C7.07234 0.884754 9.045 0.0673828 11.1434 0.0673828C15.4754 0.0674199 19 3.59181 19 7.92396Z" fill="white"/>
</g>
<defs>
<clipPath id="clip0_143_939">
<rect width="19" height="19" fill="white"/>
</clipPath>
</defs>
</svg>
