<svg width="22" height="15" viewBox="0 0 22 15" fill="none" xmlns="http://www.w3.org/2000/svg">
<path d="M22 12.8452C22 14.0516 21.0419 14.9032 19.871 14.9032H2.12903C0.958064 14.9032 0 14.0516 0 12.8452V2.05806C0 0.851613 0.958064 0 2.12903 0H19.871C21.0419 0 22 0.851613 22 2.05806V12.8452Z" fill="#29337A"/>
<path d="M2.12903 0H19.871C21.0419 0 22 0.851613 22 2.05806V12.8452C22 14.0516 20.8645 14.9032 19.6935 14.9032" fill="#1B265B"/>
<path d="M2.12903 0H19.871C21.0419 0 22 0.851613 22 2.05806V6.03226M22 12.8097C22 14.0161 21.0419 14.9032 19.871 14.9032H2.12903C0.958064 14.9032 0 13.9806 0 12.7742" fill="#111D49"/>
<path d="M12.0645 7.45161L19.6226 0H17.4936L11 6.49355L4.50647 0H2.37744L9.93551 7.45161L2.37744 14.9032H4.50647L11 8.40968L17.4936 14.9032H19.6226L12.0645 7.45161Z" fill="white"/>
<path d="M4.54196 12.7742L2.37744 14.9032H4.50647L6.63551 12.7742H4.54196ZM15.3645 12.7742L17.4936 14.9032H19.6226L17.4581 12.7742H15.3645Z" fill="#D9ECED"/>
<path d="M18.2387 13.5903L12.0645 7.52258L19.6226 0H17.4936L11 6.49355L4.50647 0H2.37744L3.7968 1.34839L18.2387 13.5903Z" fill="#D9ECED"/>
<path d="M22 6.03226H12.4194V0H9.58064V6.03226H0V8.87097H9.58064V14.9032H12.4194V8.87097H22V6.03226Z" fill="white"/>
<path d="M9.58066 12.7742H12.4194V14.9032H9.58066V12.7742ZM12.4194 0H9.58066V6.03226H9.33228L12.6678 8.87097H22V6.03226H12.4194V0Z" fill="#D9ECED"/>
<path d="M22 6.74194H11.7097H12.1355L19.1968 0H18.4871L11.7097 6.74194V0H10.2903V6.74194L3.44194 0H2.80323L9.58064 6.74194H0V8.16129H9.61613L2.98064 14.9032H3.61935L10.2903 8.16129V14.9032H11.7097V8.23226L18.5581 14.9032H19.1968L12.4194 8.16129H22V6.74194Z" fill="#E51D35"/>
<path d="M10.2903 12.7742H11.7097V14.9032H10.2903V12.7742ZM5.07419 12.7742L2.98064 14.9032H3.61935L5.74838 12.7742H5.07419ZM16.3935 12.7742L18.5581 14.9032H19.1968L17.0323 12.7742H16.3935ZM12.3484 6.74194L19.1968 0H18.4871L11.7097 6.74194V0H10.2903V6.74194L3.44193 0H2.80322L6.70645 3.86774L15.2226 11.0355L12.4194 8.16129H22V6.74194H11.7097H12.3484Z" fill="#AF0026"/>
</svg>
