<svg width="201" height="61" viewBox="0 0 201 61" fill="none" xmlns="http://www.w3.org/2000/svg">
<path fill-rule="evenodd" clip-rule="evenodd" d="M135.2 17.2136C132.359 17.8398 130.819 19.363 129.981 22.378L129.693 23.4138H128.271C126.711 23.4138 126.637 23.4673 126.492 24.6995L126.433 25.199L127.5 25.2252C128.969 25.2612 129.122 25.3398 129.026 26.0083C128.982 26.3113 128.318 28.9959 127.55 31.974C126.782 34.9522 126.195 37.4961 126.246 37.6272C126.306 37.7838 126.605 37.8655 127.117 37.8655C127.896 37.8655 127.898 37.864 128.318 36.9454C128.55 36.4392 128.962 35.0428 129.234 33.8425C129.781 31.4224 130.858 26.9016 131.116 25.9391L131.283 25.3188L133.422 25.259C135.428 25.2027 135.581 25.1742 135.886 24.7976C136.064 24.5769 136.211 24.2669 136.211 24.109C136.211 23.5205 135.85 23.4138 133.859 23.4138H131.915L132.007 22.7231C132.058 22.3431 132.307 21.6087 132.561 21.0909C133.143 19.8998 134.094 19.2503 135.491 19.0895C136.027 19.0277 136.67 18.8978 136.919 18.8006C137.401 18.6127 137.81 17.8641 137.712 17.349C137.635 16.9407 136.674 16.8889 135.2 17.2136ZM4.83828 17.3063C4.49869 17.8556 0 35.5167 0 36.3001C0 38.2545 5.71796 39.0609 9.05044 37.5767C10.2915 37.0239 11.5993 35.6588 12.2369 34.2505C13.4148 31.6491 14.3453 27.1644 14.0425 25.5499C13.8683 24.6223 12.9006 23.6406 11.8537 23.3298C10.7469 23.0011 8.24032 22.9994 6.53131 23.3264C5.80469 23.4655 5.19148 23.5605 5.16869 23.5375C5.14591 23.5148 5.46577 22.0922 5.87951 20.3763C6.29341 18.6603 6.63198 17.2264 6.63198 17.1896C6.63198 17.0308 4.94066 17.1407 4.83828 17.3063ZM19.3358 18.9065C18.9391 19.7383 18.9714 20.1268 19.4638 20.4495C20.3803 21.0498 21.4548 20.2978 21.4926 19.0294L21.5114 18.3982L20.5687 18.3482C19.6373 18.2989 19.6225 18.3055 19.3358 18.9065ZM37.8713 18.9065C37.547 19.5866 37.4931 20.2789 37.7523 20.4391C37.8463 20.4972 38.2441 20.5493 38.6362 20.5545C39.5776 20.5676 40.1757 19.9384 40.0985 19.0157L40.047 18.3982L39.1042 18.3482C38.1728 18.2989 38.158 18.3055 37.8713 18.9065ZM67.7275 20.2682C67.3134 20.5617 66.83 21.9521 66.83 22.8496V23.4138H65.3259C63.6303 23.4138 63.2589 23.6188 63.2589 24.5549C63.2589 25.1718 63.5225 25.2782 65.0587 25.2816L66.0935 25.284L65.9557 26.2616C65.8801 26.7994 65.433 28.5781 64.9621 30.2146C63.743 34.4524 63.6469 36.1 64.5557 37.18C65.0995 37.8259 66.479 38.2508 68.0815 38.2658C69.3794 38.278 69.7208 38.0474 69.7208 37.1589C69.7208 36.5553 69.4108 36.4018 67.9697 36.2916C66.3168 36.1651 66.0894 35.92 66.188 34.3711C66.23 33.7116 66.7147 31.3973 67.265 29.228L68.2655 25.284H70.4869H72.7084L72.9914 24.5203C73.2625 23.7892 73.2609 23.7492 72.9543 23.5851C72.7782 23.491 71.7558 23.4138 70.6826 23.4138H68.7311L68.976 22.4361C69.4416 20.576 69.4642 20.1837 69.1056 20.181C68.9296 20.1798 68.6325 20.1387 68.4454 20.0895C68.2584 20.0406 67.9353 20.121 67.7275 20.2682ZM46.3388 23.0834C45.7777 23.1565 44.9359 23.3449 44.4683 23.5023C42.5771 24.1386 42.0366 24.7952 41.571 27.023C41.4288 27.7031 40.8482 30.0191 40.281 32.1698C39.7137 34.3206 39.2078 36.4819 39.1567 36.9729L39.0641 37.8655H39.9419C40.6909 37.8655 40.843 37.8096 40.9802 37.483C41.0686 37.2727 41.7206 34.7246 42.429 31.8208C43.1373 28.9172 43.8639 26.2997 44.0435 26.0044C44.4452 25.344 45.776 24.9048 47.4399 24.8833C48.7588 24.8663 49.5183 25.207 49.9284 26C50.3883 26.8888 50.1648 29.1392 49.3273 32.0569C48.9425 33.3976 48.4488 35.2528 48.2301 36.1799L47.8327 37.8655L48.7012 37.8609L49.5698 37.8563L51.0095 32.0566C51.8895 28.5106 52.5712 26.1015 52.7635 25.857C53.2395 25.2519 54.6861 24.8992 56.4019 24.9696C57.785 25.0264 57.8659 25.0521 58.3414 25.5842C58.8002 26.0977 58.8372 26.2383 58.8326 27.4545C58.8287 28.5146 58.6014 29.6511 57.6601 33.3175L56.4927 37.8655H57.3961H58.2995L58.734 36.5479C59.3374 34.7183 60.4524 30.3209 60.8678 28.1322C61.1586 26.6008 61.1839 26.1606 61.0239 25.4147C60.5519 23.2142 58.4812 22.5881 54.528 23.4505C52.4214 23.9102 51.3876 23.9126 50.165 23.4609C49.0217 23.0384 47.6924 22.9073 46.3388 23.0834ZM141.992 23.1586C139.059 23.8182 137.141 25.4017 136.231 27.9152C135.041 31.205 134.466 34.4146 134.828 35.7474C135.059 36.5989 135.884 37.4687 136.891 37.9238C137.94 38.3979 140.321 38.5004 141.868 38.1382C143.855 37.6732 145.718 36.5174 146.381 35.3375L146.767 34.6506L146.242 34.3791C145.586 34.0402 145.246 34.146 144.268 34.9925C143.188 35.9273 142.387 36.2974 140.969 36.5174C138.453 36.9076 136.721 35.8589 136.721 33.9459C136.721 33.6543 136.852 32.9251 137.011 32.3252L137.302 31.2347H142.336C146.098 31.2347 147.441 31.181 147.652 31.0222C148.107 30.6808 148.48 29.3908 148.577 27.8187C148.686 26.0838 148.485 25.3369 147.667 24.432C146.533 23.1764 144.22 22.6577 141.992 23.1586ZM80.349 23.1932C76.2913 23.739 75.4833 23.9973 74.9443 24.921C74.7776 25.2066 74.3753 26.6102 74.0501 28.04C73.7252 29.4697 73.2737 31.29 73.047 32.0848C72.3413 34.5583 71.7614 36.9726 71.7614 37.4372C71.7614 37.8717 71.7851 37.8813 72.7358 37.8315L73.71 37.7805L75.1225 32.0064C75.9816 28.4945 76.6492 26.104 76.8266 25.9047C77.3332 25.3353 78.2195 25.0905 80.1415 24.9892C81.7336 24.9052 82.0711 24.8358 82.442 24.517C82.846 24.1695 82.861 24.1059 82.6549 23.6084C82.449 23.1111 82.3782 23.0754 81.6463 23.0992C81.2134 23.1132 80.6296 23.1555 80.349 23.1932ZM87.2361 23.385C85.4752 23.9696 84.4273 24.6469 83.732 25.6501C83.2093 26.4043 83.2763 26.7392 83.9811 26.8939C84.5535 27.0196 85.0337 26.7977 86.1845 25.8753C87.1595 25.0937 88.5184 24.7075 89.9021 24.8185C91.7977 24.9706 92.4655 25.8206 92.2719 27.8343C92.2134 28.4421 92.1181 29.1149 92.0597 29.3295L91.954 29.7195L89.4602 29.6035C85.6138 29.4243 83.6329 29.8987 82.3315 31.3102C81.4353 32.2822 80.9362 33.6771 80.8933 35.3286C80.8629 36.5011 80.9027 36.6912 81.2584 37.0714C81.9959 37.8594 83.2229 38.2448 85.2805 38.3351C88.1387 38.4604 90.4157 38.0287 91.3855 37.1775C92.1689 36.4895 92.5583 35.4897 93.4839 31.788C94.1748 29.0241 94.2818 28.3617 94.287 26.8142C94.2925 25.2105 94.2529 24.9723 93.8963 24.4725C93.1882 23.4801 92.3475 23.1791 90.1269 23.1235C88.5897 23.0851 87.9712 23.1411 87.2361 23.385ZM101.491 23.3908C99.8589 23.8446 98.9301 24.4402 98.4865 25.3168C98.0996 26.081 95.668 35.5038 95.4674 37.0159L95.3521 37.8849L96.2652 37.8327L97.1783 37.7805L98.4829 32.5949C99.2005 29.7428 99.9302 27.0267 100.104 26.5591C100.401 25.7648 100.483 25.6876 101.354 25.3831C102.716 24.9069 105.971 24.8923 106.742 25.359C107.962 26.0964 107.915 26.9388 106.293 33.4118C105.726 35.6785 105.261 37.6045 105.261 37.6916C105.261 37.9009 106.333 38.0962 106.751 37.9635C107.219 37.8152 107.351 37.4478 108.335 33.5812C109.664 28.361 109.895 27.1865 109.795 26.1696C109.665 24.8572 109.257 24.2652 108.072 23.6725C107.126 23.1992 106.916 23.1635 104.843 23.1208C103.098 23.0848 102.384 23.1424 101.491 23.3908ZM116.995 23.3073C114.847 23.8985 113.626 24.9897 113.072 26.814C112.193 29.7078 113.196 30.9802 116.786 31.5256C119.666 31.9631 120.227 32.102 120.678 32.4896C121.064 32.8215 121.103 32.9516 121.002 33.5531C120.551 36.2177 116.991 37.5149 114.317 35.9885C113.724 35.6497 113.294 35.239 112.99 34.7212C112.597 34.0509 112.469 33.955 111.962 33.955C111.61 33.955 111.25 34.0882 111.043 34.2951C109.999 35.3387 111.488 37.356 113.825 38.0658C114.8 38.362 115.278 38.4067 116.635 38.3297C119.285 38.179 121.029 37.3793 122.058 35.8419C122.708 34.8721 122.945 34.0127 122.946 32.6206C122.947 31.6375 122.901 31.4983 122.431 31.0598C121.76 30.4331 120.795 30.1296 118.126 29.7054C115.769 29.3308 115.452 29.2215 115.048 28.6453C114.525 27.8979 114.804 26.8161 115.747 25.941C116.499 25.2425 117.312 24.9067 118.475 24.8134C119.859 24.7022 120.79 25.0512 122.049 26.1523C123.137 27.1046 123.793 27.2377 124.216 26.5925C124.758 25.7658 123.861 24.2404 122.408 23.5163C121.606 23.1167 121.337 23.0749 119.64 23.0851C118.606 23.0916 117.416 23.1914 116.995 23.3073ZM155.633 23.4282C153.551 23.7786 152.853 24.0513 152.445 24.6736C152.3 24.8952 151.492 27.82 150.65 31.1735C149.808 34.5268 149.079 37.4044 149.03 37.568C148.953 37.8278 149.069 37.8655 149.945 37.8655H150.949L151.841 34.4226C152.332 32.5289 152.958 29.988 153.234 28.7759C153.991 25.4416 154.144 25.2976 157.138 25.1065C159.475 24.9574 160.018 24.7348 160.018 23.9259C160.018 22.9814 158.985 22.8643 155.633 23.4282ZM18.4512 23.7963C18.0616 24.1324 17.8319 24.8804 16.5578 29.9596C14.6684 37.492 14.721 37.2587 14.8459 37.5843C14.9777 37.9278 16.1144 37.972 16.5538 37.6506C16.7633 37.4976 17.3329 35.4597 18.5381 30.5523C19.4678 26.7664 20.2301 23.6115 20.2323 23.5413C20.2415 23.2327 18.8782 23.428 18.4512 23.7963ZM23.2043 23.8312C22.703 24.3322 22.6659 24.8673 23.1157 25.108C23.3126 25.2133 24.8827 25.284 27.0269 25.284C29.2356 25.284 30.6091 25.3474 30.6091 25.4494C30.6091 25.5404 28.2562 27.9696 25.3801 30.8476C21.6412 34.5891 20.015 36.3347 19.6735 36.9729L19.1962 37.8655H24.8813H30.5666L30.6688 37.398C30.725 37.1407 30.82 36.7582 30.88 36.5479L30.9889 36.1653H26.8029C24.5004 36.1653 22.6168 36.105 22.6168 36.031C22.6168 35.9016 25.3483 33.1866 30.6972 27.9989C33.4153 25.3629 34.2731 24.1903 33.8532 23.6844C33.657 23.4481 32.9941 23.4138 28.625 23.4138H23.6216L23.2043 23.8312ZM37.0413 23.5902C36.8847 23.6817 36.6766 24.0044 36.5788 24.3077C36.223 25.4108 33.33 37.1703 33.33 37.5131C33.33 37.8152 33.4347 37.8655 34.0627 37.8655C34.4657 37.8655 34.924 37.77 35.0811 37.653C35.5127 37.332 38.8734 23.7531 38.569 23.5602C38.2676 23.3689 37.3911 23.3862 37.0413 23.5902ZM145.058 25.1565C146.449 25.859 146.87 27.0553 146.393 28.9491L146.203 29.7045H141.957H137.711L137.831 28.9819C138.239 26.5306 140.446 24.7998 143.189 24.7814C144.015 24.7758 144.496 24.8722 145.058 25.1565ZM10.7072 25.166C11.0468 25.283 11.4636 25.6174 11.6905 25.9547C12.0161 26.4388 12.0658 26.6751 11.9768 27.3149C11.5929 30.0762 10.5397 33.65 9.75343 34.8606C9.23257 35.6622 7.89682 36.3313 6.81207 36.3336C6.39663 36.3347 5.19131 36.2476 4.13377 36.1405C2.46557 35.9713 2.21066 35.9049 2.21066 35.6388C2.21066 35.1034 2.54957 33.6385 3.61188 29.5835L4.64579 25.6368L5.58549 25.4418C8.11669 24.9164 9.73014 24.8295 10.7072 25.166ZM174.818 29.247C173.888 29.5432 172.706 30.819 172.267 31.9998C171.322 34.5411 171.788 36.6152 173.55 37.7037C175.305 38.7879 178.553 37.3126 178.553 35.4315C178.553 35.0444 178.514 35.0281 177.866 35.1464C177.489 35.2156 177.159 35.3009 177.135 35.3361C177.11 35.3713 176.954 35.617 176.788 35.8821C176.475 36.3818 175.6 36.8454 174.971 36.8454C174.771 36.8454 174.358 36.5948 174.051 36.2886C173.627 35.864 173.468 35.5306 173.385 34.8859C173.178 33.2719 173.937 31.2838 175.001 30.6558C176.089 30.0133 177.44 30.5638 177.68 31.7475C177.792 32.2994 177.849 32.3434 178.517 32.3921C179.211 32.4427 179.234 32.4284 179.234 31.9357C179.234 30.8443 178.459 29.7069 177.411 29.2586C176.772 28.9852 175.655 28.9802 174.818 29.247ZM182.373 29.4267C180.512 30.2928 179.461 32.2336 179.611 34.5248C179.759 36.7951 180.691 37.8864 182.585 38.007C185.275 38.1784 187.337 35.9152 187.283 32.8499C187.272 32.1953 187.146 31.3911 187.004 31.063C186.202 29.2125 184.287 28.5356 182.373 29.4267ZM191.35 29.4434C190.492 29.8424 190.457 29.8456 190.457 29.5267C190.457 29.2626 190.339 29.1945 189.882 29.1945C189.567 29.1945 189.23 29.2902 189.135 29.407C189.04 29.524 188.875 30.1933 188.768 30.8947C188.662 31.596 188.392 33.1645 188.169 34.3801C187.946 35.5958 187.714 36.8816 187.655 37.2376L187.547 37.8849L188.364 37.8327L189.181 37.7805L189.632 35.1913C189.88 33.7672 190.186 32.2776 190.312 31.881C190.722 30.5949 192.279 29.9631 193.201 30.7092C193.553 30.9943 193.598 31.1645 193.571 32.1119C193.554 32.7047 193.389 33.955 193.203 34.8902C193.018 35.8253 192.826 36.8774 192.777 37.2279L192.689 37.8655H193.529C193.99 37.8655 194.368 37.7999 194.368 37.7197C194.368 36.9653 195.15 32.6756 195.418 31.9592C195.814 30.9008 196.477 30.3863 197.445 30.3853C198.797 30.3838 199.039 31.5511 198.378 34.8902C197.777 37.9261 197.771 37.8655 198.69 37.8655H199.441L199.629 36.9923C200.368 33.5443 200.52 31.1123 200.056 30.1347C199.476 28.9124 198.088 28.7271 196.121 29.6095L195.086 30.074L194.361 29.5493C193.456 28.8932 192.596 28.8631 191.35 29.4434ZM184.999 30.8221C185.885 31.5676 186.033 33.1201 185.38 34.8288C185.079 35.615 184.175 36.4896 183.466 36.6805C182.624 36.9073 182.044 36.658 181.477 35.8253C180.636 34.5909 181.302 31.639 182.617 30.7673C183.413 30.2403 184.333 30.2614 184.999 30.8221ZM91.4873 31.4712C91.4873 31.6312 90.643 34.7671 90.4973 35.1481C90.1094 36.1629 88.7164 36.6688 86.3008 36.6718C84.174 36.6745 83.2341 36.2631 82.9076 35.1867C82.7406 34.6367 83.2303 33.1157 83.7857 32.4592C84.5351 31.5736 85.2317 31.4207 88.554 31.4122C90.1672 31.4081 91.4873 31.4347 91.4873 31.4712Z" fill="white"/>
<path fill-rule="evenodd" clip-rule="evenodd" d="M197.939 1.01153C194.797 2.21001 189.871 4.11918 183.485 6.61338C173.431 10.5398 171.82 11.158 171.369 11.2624C170.74 11.4078 170.778 11.8027 171.454 12.1476C171.758 12.3026 173.269 13.2481 174.812 14.2485C176.355 15.2489 177.797 16.1633 178.016 16.2801C178.492 16.5346 178.179 16.7294 185.355 11.7057C188.114 9.77423 191.099 7.71103 191.987 7.12089L193.603 6.04806L192.923 6.77065C192.549 7.16798 190.253 9.29341 187.821 11.4937C182.661 16.1626 181.104 17.6549 181.104 17.931C181.104 18.3428 189.439 23.3655 189.657 23.0852C189.794 22.9088 201 0.187103 201 0.0852603C201 -0.123355 200.584 0.00245989 197.939 1.01153ZM180.353 22.2424C180.187 23.9405 180.091 25.3697 180.14 25.4185C180.37 25.6489 181.082 25.1555 182.352 23.8853C183.115 23.1219 183.95 22.3264 184.208 22.1174C184.465 21.9086 184.675 21.5963 184.675 21.4237C184.675 21.2454 184.473 21.0194 184.208 20.9006C183.95 20.7853 183.277 20.3917 182.712 20.0258C182.147 19.6599 181.452 19.3143 181.169 19.2576L180.655 19.1548L180.353 22.2424ZM172.091 25.7494C168.117 28.9786 164.73 31.6624 164.567 31.7134C164.152 31.8426 164.195 32.2185 164.68 32.7025C165.569 33.5916 165.783 33.5122 167.959 31.4881C170.243 29.3621 179.631 20.1834 179.715 19.9926C179.957 19.4486 178.399 20.6253 172.091 25.7494ZM159.011 33.0463C157.382 33.503 156.401 34.3427 155.96 35.6599C155.682 36.4918 155.722 37.7688 156.053 38.596C156.217 39.0047 156.269 39.335 156.176 39.3662C156.086 39.3963 154.063 40.5334 151.68 41.8932C144.361 46.0713 141.947 47.1876 134.804 49.7C128.91 51.7729 125.177 52.7225 119.801 53.5168C109.19 55.0842 97.9602 54.4312 87.7054 51.65C83.2487 50.4411 79.6307 49.0922 73.3533 46.2981L71.1192 45.3038L71.3552 44.6346C72.4242 41.6053 69.6588 39.3266 66.1705 40.3622C64.4578 40.8709 63.2715 42.3971 63.1428 44.2582C63.0457 45.6648 63.505 46.4666 64.7773 47.1109C65.8 47.6288 66.4144 47.6778 68.1515 47.3801L69.3092 47.1815L70.8568 48.222C75.2654 51.1858 82.0521 54.6135 87.6265 56.6918C94.8797 59.3958 102.877 60.6556 111.46 60.4462C121.187 60.2088 128.429 58.2682 139.187 53.0159C144.558 50.3934 150.486 46.6818 155.524 42.787L158.228 40.6962L159.931 40.6906C161.393 40.6857 161.765 40.6235 162.57 40.2496C163.643 39.7504 164.554 38.9102 164.889 38.1104C165.219 37.3193 165.173 35.7265 164.795 34.8951C164.055 33.2657 161.334 32.3957 159.011 33.0463Z" fill="#FBFAFF"/>
</svg>
