<svg width="117" height="36" viewBox="0 0 117 36" fill="none" xmlns="http://www.w3.org/2000/svg">
<path fill-rule="evenodd" clip-rule="evenodd" d="M78.6987 10.0217C77.0447 10.3862 76.1486 11.273 75.6606 13.0283L75.4929 13.6313H74.6653C73.7572 13.6313 73.714 13.6625 73.6294 14.3799L73.5952 14.6707L74.2166 14.6859C75.0716 14.7069 75.1608 14.7526 75.1045 15.1419C75.0791 15.3182 74.6925 16.8812 74.2456 18.615C73.7987 20.349 73.4569 21.83 73.4862 21.9063C73.5212 21.9974 73.6954 22.0451 73.9935 22.0451C74.4468 22.0451 74.4479 22.0442 74.6928 21.5093C74.8276 21.2147 75.0674 20.4017 75.2256 19.7029C75.5443 18.2939 76.1712 15.6619 76.3215 15.1016L76.4184 14.7405L77.6635 14.7056C78.8314 14.6729 78.9202 14.6562 79.0976 14.437C79.2017 14.3085 79.2868 14.1281 79.2868 14.0361C79.2868 13.6935 79.0766 13.6313 77.9177 13.6313H76.7862L76.8401 13.2293C76.8697 13.008 77.0147 12.5804 77.1621 12.279C77.5014 11.5855 78.0549 11.2074 78.8679 11.1138C79.1799 11.0778 79.554 11.0022 79.699 10.9456C79.9796 10.8362 80.2178 10.4004 80.1609 10.1005C80.1157 9.8628 79.5564 9.83261 78.6987 10.0217ZM2.81631 10.0756C2.61864 10.3954 0 20.6776 0 21.1337C0 22.2715 3.32836 22.741 5.26817 21.8769C5.99056 21.5551 6.75185 20.7603 7.12295 19.9404C7.80861 18.4259 8.35026 15.815 8.17397 14.875C8.07261 14.3349 7.50928 13.7634 6.89993 13.5824C6.25564 13.3911 4.79661 13.3901 3.80181 13.5805C3.37885 13.6614 3.02191 13.7168 3.00864 13.7034C2.99538 13.6901 3.18157 12.8619 3.4224 11.863C3.66333 10.8639 3.86041 10.0291 3.86041 10.0077C3.86041 9.91526 2.8759 9.97921 2.81631 10.0756ZM11.2552 11.0073C11.0242 11.4915 11.043 11.7177 11.3297 11.9055C11.8631 12.2551 12.4886 11.8173 12.5106 11.0788L12.5216 10.7113L11.9728 10.6822C11.4307 10.6535 11.4221 10.6573 11.2552 11.0073ZM22.0445 11.0073C21.8557 11.4032 21.8244 11.8063 21.9752 11.8995C22.03 11.9334 22.2615 11.9637 22.4897 11.9667C23.0377 11.9743 23.3858 11.608 23.3409 11.0708L23.3109 10.7113L22.7621 10.6822C22.22 10.6535 22.2114 10.6573 22.0445 11.0073ZM39.4235 11.8C39.1824 11.9709 38.901 12.7804 38.901 13.3029V13.6313H38.0255C37.0385 13.6313 36.8223 13.7507 36.8223 14.2957C36.8223 14.6549 36.9758 14.7168 37.87 14.7188L38.4723 14.7202L38.3921 15.2893C38.3481 15.6024 38.0879 16.638 37.8138 17.5907C37.1041 20.0579 37.0482 21.0172 37.5772 21.6459C37.8937 22.022 38.6967 22.2694 39.6295 22.2781C40.385 22.2852 40.5838 22.151 40.5838 21.6337C40.5838 21.2823 40.4033 21.1929 39.5644 21.1287C38.6023 21.0551 38.4699 20.9124 38.5274 20.0106C38.5518 19.6267 38.8339 18.2793 39.1542 17.0163L39.7367 14.7202H41.0297H42.3228L42.4875 14.2755C42.6453 13.8499 42.6444 13.8266 42.466 13.7311C42.3634 13.6763 41.7683 13.6313 41.1436 13.6313H40.0077L40.1502 13.0622C40.4212 11.9792 40.4344 11.7508 40.2256 11.7492C40.1232 11.7486 39.9503 11.7246 39.8414 11.696C39.7325 11.6675 39.5444 11.7143 39.4235 11.8ZM26.9734 13.439C26.6467 13.4816 26.1567 13.5913 25.8845 13.6829C24.7837 14.0533 24.469 14.4356 24.198 15.7326C24.1153 16.1285 23.7773 17.4769 23.4471 18.7291C23.1169 19.9812 22.8224 21.2395 22.7927 21.5254L22.7388 22.0451H23.2497C23.6858 22.0451 23.7743 22.0125 23.8541 21.8223C23.9056 21.6999 24.2851 20.2164 24.6975 18.5259C25.1098 16.8354 25.5327 15.3115 25.6373 15.1396C25.8711 14.7551 26.6457 14.4994 27.6143 14.4869C28.382 14.477 28.8241 14.6753 29.0628 15.137C29.3305 15.6545 29.2004 16.9647 28.7129 18.6633C28.4889 19.4438 28.2016 20.524 28.0743 21.0637L27.8429 22.0451L28.3484 22.0424L28.8541 22.0397L29.6921 18.6631C30.2043 16.5987 30.6011 15.1961 30.7131 15.0538C30.9902 14.7015 31.8322 14.4962 32.831 14.5372C33.636 14.5702 33.6831 14.5852 33.9599 14.895C34.227 15.1939 34.2485 15.2758 34.2459 15.9838C34.2436 16.601 34.1112 17.2627 33.5634 19.3972L32.8838 22.0451H33.4096H33.9355L34.1885 21.2779C34.5396 20.2127 35.1887 17.6526 35.4305 16.3784C35.5998 15.4868 35.6145 15.2305 35.5214 14.7963C35.2466 13.5151 34.0413 13.1507 31.7402 13.6527C30.5139 13.9204 29.9122 13.9218 29.2005 13.6588C28.535 13.4128 27.7613 13.3365 26.9734 13.439ZM82.6523 13.4828C80.9447 13.8668 79.8285 14.7887 79.2989 16.2521C78.6059 18.1673 78.271 20.036 78.4818 20.8119C78.6164 21.3076 79.0965 21.814 79.6828 22.079C80.2933 22.355 81.6794 22.4147 82.5801 22.2038C83.7367 21.9331 84.8207 21.2602 85.2067 20.5732L85.4315 20.1734L85.1257 20.0153C84.7443 19.818 84.5464 19.8796 83.9769 20.3724C83.3481 20.9166 82.882 21.1321 82.0564 21.2602C80.5922 21.4874 79.5838 20.8768 79.5838 19.7631C79.5838 19.5933 79.6599 19.1688 79.7529 18.8195L79.9221 18.1846H82.8521C85.0421 18.1846 85.8236 18.1534 85.9468 18.0609C86.2115 17.8622 86.4284 17.1112 86.4854 16.1958C86.5483 15.1858 86.4314 14.751 85.9555 14.2242C85.2952 13.4932 83.9492 13.1912 82.6523 13.4828ZM46.7703 13.503C44.4083 13.8207 43.9381 13.9711 43.6243 14.5088C43.5273 14.6751 43.2931 15.4923 43.1038 16.3247C42.9147 17.1571 42.6519 18.2168 42.5199 18.6796C42.1091 20.1196 41.7716 21.5252 41.7716 21.7957C41.7716 22.0486 41.7853 22.0543 42.3388 22.0253L42.9058 21.9956L43.728 18.6339C44.2281 16.5893 44.6167 15.1976 44.7199 15.0816C45.0148 14.7501 45.5307 14.6075 46.6496 14.5485C47.5762 14.4996 47.7727 14.4593 47.9886 14.2737C48.2238 14.0713 48.2325 14.0343 48.1125 13.7447C47.9927 13.4552 47.9515 13.4344 47.5255 13.4482C47.2735 13.4563 46.9336 13.481 46.7703 13.503ZM50.7792 13.6146C49.7542 13.9549 49.1443 14.3493 48.7395 14.9333C48.4352 15.3724 48.4742 15.5674 48.8845 15.6575C49.2177 15.7306 49.4972 15.6014 50.1671 15.0644C50.7346 14.6094 51.5256 14.3845 52.3311 14.4492C53.4345 14.5378 53.8232 15.0326 53.7105 16.205C53.6765 16.5588 53.621 16.9505 53.587 17.0754L53.5254 17.3025L52.0738 17.235C49.8349 17.1307 48.6818 17.4068 47.9243 18.2286C47.4026 18.7945 47.1121 19.6066 47.0872 20.5681C47.0694 21.2507 47.0926 21.3614 47.2997 21.5827C47.729 22.0415 48.4432 22.2659 49.6409 22.3185C51.3046 22.3914 52.63 22.1401 53.1945 21.6445C53.6505 21.244 53.8772 20.6618 54.416 18.5067C54.8182 16.8976 54.8804 16.512 54.8835 15.611C54.8867 14.6774 54.8636 14.5387 54.656 14.2477C54.2439 13.67 53.7545 13.4947 52.4619 13.4624C51.5671 13.44 51.2071 13.4726 50.7792 13.6146ZM59.0766 13.618C58.1268 13.8822 57.5862 14.2289 57.3279 14.7393C57.1027 15.1842 55.6874 20.6701 55.5706 21.5504L55.5034 22.0563L56.035 22.026L56.5664 21.9956L57.3259 18.9765C57.7436 17.3161 58.1683 15.7348 58.2698 15.4626C58.4422 15.0001 58.4899 14.9552 58.9968 14.7779C59.7898 14.5006 61.6844 14.4921 62.1335 14.7638C62.8433 15.1931 62.8159 15.6836 61.8723 19.4521C61.5419 20.7718 61.2716 21.8931 61.2716 21.9438C61.2716 22.0656 61.8951 22.1794 62.1388 22.1021C62.4108 22.0158 62.488 21.8019 63.0608 19.5507C63.8342 16.5116 63.9688 15.8278 63.9104 15.2358C63.8349 14.4717 63.5972 14.1271 62.9076 13.782C62.3568 13.5064 62.2348 13.4856 61.0279 13.4608C60.012 13.4398 59.5967 13.4734 59.0766 13.618ZM68.1015 13.5694C66.8513 13.9136 66.1407 14.5488 65.8182 15.6109C65.3064 17.2957 65.8902 18.0365 67.9799 18.354C69.6565 18.6087 69.9828 18.6896 70.2451 18.9153C70.4698 19.1085 70.4929 19.1842 70.4337 19.5344C70.1717 21.0857 68.099 21.8409 66.5428 20.9523C66.1974 20.755 65.9472 20.5159 65.7705 20.2144C65.5418 19.8242 65.467 19.7684 65.1721 19.7684C64.967 19.7684 64.7575 19.8459 64.6371 19.9664C64.0295 20.5739 64.8959 21.7484 66.2566 22.1617C66.8241 22.3341 67.1019 22.3601 67.8921 22.3153C69.4347 22.2276 70.4496 21.762 71.0488 20.8669C71.4269 20.3023 71.5647 19.802 71.5654 18.9915C71.566 18.4191 71.5393 18.3381 71.266 18.0828C70.8755 17.7179 70.3136 17.5412 68.7597 17.2943C67.3879 17.0762 67.2033 17.0126 66.9683 16.6771C66.6636 16.242 66.8263 15.6121 67.3751 15.1027C67.8131 14.696 68.2859 14.5005 68.963 14.4462C69.7685 14.3815 70.3109 14.5847 71.0434 15.2257C71.6769 15.7801 72.0586 15.8576 72.3047 15.482C72.6201 15.0007 72.0982 14.1126 71.2524 13.691C70.7855 13.4584 70.6288 13.4341 69.6411 13.44C69.0393 13.4438 68.3465 13.5019 68.1015 13.5694ZM90.5924 13.6398C89.3803 13.8438 88.974 14.0025 88.7366 14.3648C88.6521 14.4938 88.182 16.1966 87.6919 18.149C87.2018 20.1013 86.7776 21.7766 86.7491 21.8718C86.7039 22.0231 86.7714 22.0451 87.2816 22.0451H87.8659L88.3852 20.0406C88.6708 18.9381 89.0354 17.4588 89.1957 16.7531C89.6364 14.8119 89.7256 14.7281 91.4686 14.6168C92.8287 14.53 93.1447 14.4005 93.1447 13.9295C93.1447 13.3796 92.5434 13.3114 90.5924 13.6398ZM10.7402 13.8541C10.5135 14.0498 10.3797 14.4852 9.63815 17.4423C8.53833 21.8276 8.56891 21.6918 8.64167 21.8813C8.71838 22.0813 9.38 22.107 9.63577 21.9199C9.75772 21.8309 10.0893 20.6444 10.7908 17.7873C11.332 15.5832 11.7757 13.7465 11.777 13.7056C11.7824 13.5259 10.9888 13.6397 10.7402 13.8541ZM13.507 13.8744C13.2152 14.1661 13.1936 14.4776 13.4554 14.6177C13.57 14.679 14.4839 14.7202 15.732 14.7202C17.0178 14.7202 17.8173 14.7571 17.8173 14.8165C17.8173 14.8694 16.4476 16.2837 14.7735 17.9593C12.5971 20.1375 11.6505 21.1538 11.4517 21.5254L11.1739 22.0451H14.4832H17.7925L17.852 21.7728C17.8847 21.6231 17.94 21.4004 17.9749 21.2779L18.0383 21.0552H15.6017C14.2614 21.0552 13.165 21.0201 13.165 20.977C13.165 20.9017 14.755 19.321 17.8685 16.3008C19.4507 14.7661 19.95 14.0834 19.7056 13.7889C19.5914 13.6513 19.2055 13.6313 16.6623 13.6313H13.7499L13.507 13.8744ZM21.5614 13.7341C21.4702 13.7873 21.349 13.9752 21.2921 14.1518C21.085 14.794 19.401 21.6403 19.401 21.8399C19.401 22.0158 19.462 22.0451 19.8275 22.0451C20.0621 22.0451 20.3289 21.9894 20.4204 21.9213C20.6716 21.7344 22.6278 13.8289 22.4506 13.7166C22.2751 13.6052 21.765 13.6153 21.5614 13.7341ZM84.437 14.6459C85.2467 15.0549 85.4918 15.7514 85.2141 16.854L85.1035 17.2938H82.6318H80.1603L80.2301 16.8731C80.4673 15.4459 81.7523 14.4383 83.349 14.4276C83.8298 14.4243 84.1095 14.4804 84.437 14.6459ZM6.23258 14.6515C6.43025 14.7196 6.67286 14.9143 6.80491 15.1107C6.99446 15.3925 7.02337 15.5301 6.9716 15.9026C6.74809 17.5102 6.13508 19.5908 5.67737 20.2956C5.37418 20.7623 4.59666 21.1518 3.96523 21.1532C3.72341 21.1538 3.02181 21.1031 2.40622 21.0408C1.43518 20.9423 1.2868 20.9036 1.2868 20.7487C1.2868 20.4369 1.48408 19.5841 2.10244 17.2233L2.70427 14.9256L3.25125 14.812C4.72464 14.5062 5.66381 14.4556 6.23258 14.6515ZM101.76 17.0274C101.218 17.1998 100.53 17.9426 100.275 18.6301C99.7246 20.1096 99.9962 21.3171 101.022 21.9508C102.043 22.582 103.934 21.7232 103.934 20.628C103.934 20.4026 103.911 20.3931 103.534 20.462C103.314 20.5023 103.123 20.552 103.108 20.5725C103.094 20.5929 103.003 20.736 102.907 20.8903C102.724 21.1812 102.215 21.4511 101.849 21.4511C101.733 21.4511 101.492 21.3052 101.313 21.127C101.066 20.8798 100.974 20.6857 100.926 20.3103C100.805 19.3707 101.247 18.2133 101.866 17.8476C102.499 17.4735 103.286 17.7941 103.426 18.4832C103.491 18.8045 103.524 18.8301 103.913 18.8584C104.317 18.8879 104.33 18.8796 104.33 18.5928C104.33 17.9574 103.879 17.2952 103.269 17.0341C102.897 16.875 102.247 16.8721 101.76 17.0274ZM106.157 17.132C105.074 17.6363 104.462 18.7662 104.549 20.1001C104.636 21.4218 105.178 22.0572 106.281 22.1274C107.847 22.2272 109.047 20.9096 109.016 19.125C109.009 18.7439 108.936 18.2757 108.853 18.0847C108.386 17.0073 107.271 16.6133 106.157 17.132ZM111.383 17.1417C110.884 17.3741 110.863 17.3759 110.863 17.1902C110.863 17.0365 110.794 16.9968 110.529 16.9968C110.345 16.9968 110.149 17.0526 110.094 17.1206C110.038 17.1887 109.942 17.5784 109.88 17.9867C109.818 18.395 109.661 19.3081 109.531 20.0159C109.401 20.7236 109.267 21.4722 109.232 21.6795L109.169 22.0563L109.645 22.026L110.12 21.9956L110.383 20.4881C110.527 19.659 110.705 18.7918 110.779 18.5609C111.017 17.8122 111.924 17.4443 112.46 17.8787C112.665 18.0447 112.691 18.1438 112.676 18.6953C112.666 19.0405 112.57 19.7684 112.461 20.3128C112.353 20.8572 112.242 21.4698 112.214 21.6739L112.162 22.0451H112.651C112.92 22.0451 113.14 22.0068 113.14 21.9601C113.14 21.5209 113.595 19.0235 113.751 18.6064C113.981 17.9902 114.367 17.6907 114.931 17.6901C115.718 17.6892 115.859 18.3689 115.474 20.3128C115.124 22.0803 115.12 22.0451 115.656 22.0451H116.093L116.202 21.5367C116.632 19.5293 116.72 18.1134 116.45 17.5442C116.113 16.8326 115.305 16.7247 114.16 17.2384L113.558 17.5089L113.136 17.2034C112.609 16.8214 112.108 16.8039 111.383 17.1417ZM107.686 17.9444C108.202 18.3785 108.288 19.2823 107.907 20.2771C107.733 20.7348 107.206 21.244 106.793 21.3551C106.303 21.4872 105.966 21.3421 105.636 20.8572C105.146 20.1386 105.534 18.42 106.3 17.9125C106.763 17.6057 107.298 17.618 107.686 17.9444ZM53.2538 18.3223C53.2538 18.4155 52.7624 20.2412 52.6775 20.463C52.4517 21.0538 51.6409 21.3483 50.2348 21.3501C48.9968 21.3517 48.4497 21.1121 48.2596 20.4855C48.1624 20.1652 48.4475 19.2797 48.7708 18.8975C49.207 18.3819 49.6125 18.2929 51.5463 18.288C52.4854 18.2856 53.2538 18.3011 53.2538 18.3223Z" fill="black"/>
<path fill-rule="evenodd" clip-rule="evenodd" d="M115.218 0.588907C113.389 1.28665 110.522 2.39815 106.805 3.85026C100.952 6.13621 100.015 6.49612 99.7519 6.5569C99.3861 6.64153 99.4081 6.87147 99.8014 7.07221C99.9783 7.16249 100.858 7.71294 101.756 8.29537C102.655 8.8778 103.494 9.41014 103.621 9.47814C103.898 9.62632 103.716 9.73976 107.893 6.81495C109.499 5.69049 111.237 4.4893 111.754 4.14573L112.694 3.52113L112.298 3.94182C112.08 4.17315 110.744 5.41056 109.329 6.69152C106.325 9.40974 105.419 10.2785 105.419 10.4393C105.419 10.679 110.27 13.6032 110.397 13.44C110.477 13.3374 117 0.10893 117 0.0496379C117 -0.0718164 116.758 0.00143213 115.218 0.588907ZM104.982 12.9493C104.885 13.938 104.829 14.7701 104.857 14.7985C104.992 14.9326 105.406 14.6453 106.145 13.9058C106.59 13.4614 107.076 12.9982 107.225 12.8766C107.375 12.755 107.497 12.5732 107.497 12.4727C107.497 12.3689 107.38 12.2373 107.225 12.1681C107.076 12.101 106.684 11.8719 106.355 11.6589C106.026 11.4459 105.622 11.2446 105.457 11.2117L105.157 11.1518L104.982 12.9493ZM100.173 14.9911C97.8588 16.8711 95.8878 18.4336 95.7925 18.4633C95.5514 18.5385 95.5764 18.7574 95.8582 19.0392C96.3758 19.5568 96.5007 19.5105 97.7669 18.3321C99.0966 17.0944 104.561 11.7506 104.61 11.6396C104.751 11.3228 103.844 12.0079 100.173 14.9911ZM92.5588 19.2393C91.6101 19.5052 91.0395 19.9941 90.7827 20.7609C90.6206 21.2452 90.644 21.9887 90.8368 22.4703C90.932 22.7082 90.9626 22.9006 90.9081 22.9187C90.8558 22.9362 89.6783 23.5982 88.2916 24.3899C84.0309 26.8223 82.6261 27.4723 78.4678 28.935C75.0373 30.1418 72.8642 30.6946 69.7348 31.1571C63.5583 32.0696 57.0216 31.6894 51.0524 30.0702C48.4582 29.3665 46.3522 28.5811 42.6982 26.9544L41.3977 26.3755L41.5351 25.9859C42.1573 24.2223 40.5476 22.8956 38.5172 23.4985C37.5202 23.7947 36.8297 24.6833 36.7547 25.7668C36.6982 26.5857 36.9656 27.0525 37.7062 27.4276C38.3015 27.7292 38.6591 27.7577 39.6702 27.5843L40.3441 27.4687L41.245 28.0745C43.8112 29.8 47.7616 31.7955 51.0065 33.0055C55.2285 34.5798 59.8834 35.3133 64.8796 35.1913C70.5416 35.0531 74.757 33.9233 81.0191 30.8655C84.1459 29.3386 87.5964 27.1778 90.5286 24.9103L92.1027 23.693L93.0939 23.6898C93.9452 23.6869 94.1619 23.6507 94.63 23.433C95.2551 23.1424 95.7854 22.6532 95.9799 22.1876C96.1723 21.727 96.1454 20.7997 95.9257 20.3157C95.4948 19.367 93.9106 18.8605 92.5588 19.2393Z" fill="url(#paint0_linear_140_100)"/>
<defs>
<linearGradient id="paint0_linear_140_100" x1="76.8737" y1="0" x2="76.8737" y2="35.2044" gradientUnits="userSpaceOnUse">
<stop stop-color="#F98F3D"/>
<stop offset="1" stop-color="#D76C19"/>
</linearGradient>
</defs>
</svg>
