<svg width="157" height="30" viewBox="0 0 157 30" fill="none" xmlns="http://www.w3.org/2000/svg">
<path d="M6.72188 28.7352V26.8237C6.72188 26.0925 6.27649 25.6137 5.51189 25.6137C5.12959 25.6137 4.71389 25.7399 4.42809 26.1556C4.2054 25.8067 3.8862 25.6137 3.4074 25.6137C3.0882 25.6137 2.769 25.7102 2.5166 26.0591V25.6768H1.84851V28.7352H2.5166V27.0464C2.5166 26.5045 2.8024 26.2484 3.2478 26.2484C3.69319 26.2484 3.91589 26.5342 3.91589 27.0464V28.7352H4.58398V27.0464C4.58398 26.5045 4.90318 26.2484 5.31517 26.2484C5.76057 26.2484 5.98327 26.5342 5.98327 27.0464V28.7352H6.72188ZM16.6319 25.6768H15.5481V24.7526H14.88V25.6768H14.2751V26.2818H14.88V27.6848C14.88 28.3863 15.1658 28.7983 15.9304 28.7983C16.2162 28.7983 16.5354 28.7018 16.7581 28.5756L16.5651 28.0003C16.3721 28.1265 16.1494 28.1599 15.9898 28.1599C15.6706 28.1599 15.5444 27.9669 15.5444 27.6514V26.2818H16.6282V25.6768H16.6319ZM22.3033 25.61C21.921 25.61 21.6649 25.803 21.5053 26.0554V25.6731H20.8372V28.7315H21.5053V27.0093C21.5053 26.5008 21.728 26.2113 22.1437 26.2113C22.2699 26.2113 22.4295 26.2447 22.5594 26.2744L22.7524 25.636C22.6188 25.61 22.4295 25.61 22.3033 25.61ZM13.7332 25.9292C13.414 25.7065 12.9686 25.61 12.4898 25.61C11.7252 25.61 11.2167 25.9923 11.2167 26.5973C11.2167 27.1058 11.599 27.3953 12.2671 27.4881L12.5863 27.5215C12.9352 27.5846 13.1282 27.6811 13.1282 27.8407C13.1282 28.0634 12.8721 28.223 12.4267 28.223C11.9813 28.223 11.6287 28.0634 11.406 27.9038L11.0868 28.4123C11.4357 28.6684 11.9145 28.7946 12.3933 28.7946C13.284 28.7946 13.7963 28.3789 13.7963 27.8073C13.7963 27.2654 13.3805 26.9796 12.7459 26.8831L12.4267 26.8497C12.1409 26.8163 11.9182 26.7532 11.9182 26.5639C11.9182 26.3412 12.1409 26.215 12.4935 26.215C12.8758 26.215 13.2581 26.3746 13.4511 26.4711L13.7332 25.9292ZM31.5082 25.61C31.1259 25.61 30.8698 25.803 30.7102 26.0554V25.6731H30.0421V28.7315H30.7102V27.0093C30.7102 26.5008 30.9328 26.2113 31.3486 26.2113C31.4747 26.2113 31.6343 26.2447 31.7643 26.2744L31.9573 25.6434C31.8274 25.61 31.6381 25.61 31.5082 25.61ZM22.9714 27.206C22.9714 28.1302 23.6098 28.7983 24.5971 28.7983C25.0425 28.7983 25.3617 28.7018 25.6809 28.4494L25.3617 27.9075C25.1056 28.1005 24.8532 28.1933 24.5637 28.1933C24.0218 28.1933 23.6395 27.811 23.6395 27.206C23.6395 26.6307 24.0218 26.2484 24.5637 26.2187C24.8495 26.2187 25.1056 26.3152 25.3617 26.5045L25.6809 25.9626C25.3617 25.7065 25.0425 25.6137 24.5971 25.6137C23.6098 25.61 22.9714 26.2818 22.9714 27.206ZM29.1513 27.206V25.6768H28.4832V26.0591C28.2605 25.7733 27.9413 25.6137 27.5256 25.6137C26.6645 25.6137 25.9964 26.2818 25.9964 27.206C25.9964 28.1302 26.6645 28.7983 27.5256 28.7983C27.971 28.7983 28.2902 28.6387 28.4832 28.3529V28.7352H29.1513V27.206ZM26.6979 27.206C26.6979 26.6641 27.0468 26.2187 27.6221 26.2187C28.164 26.2187 28.5463 26.6344 28.5463 27.206C28.5463 27.7479 28.164 28.1933 27.6221 28.1933C27.0505 28.1599 26.6979 27.7442 26.6979 27.206ZM18.703 25.61C17.8122 25.61 17.1738 26.2484 17.1738 27.2023C17.1738 28.1599 17.8122 28.7946 18.7364 28.7946C19.1818 28.7946 19.6272 28.6684 19.9798 28.3789L19.6606 27.9001C19.4045 28.0931 19.0853 28.2193 18.7698 28.2193C18.3541 28.2193 17.9421 28.0263 17.8456 27.4881H20.106C20.106 27.3916 20.106 27.3285 20.106 27.232C20.1357 26.2484 19.5604 25.61 18.703 25.61ZM18.703 26.1853C19.1187 26.1853 19.4045 26.4414 19.4676 26.9165H17.8753C17.9384 26.5045 18.2242 26.1853 18.703 26.1853ZM35.3014 27.206V24.4668H34.6333V26.0591C34.4106 25.7733 34.0914 25.6137 33.6757 25.6137C32.8146 25.6137 32.1466 26.2818 32.1466 27.206C32.1466 28.1302 32.8146 28.7983 33.6757 28.7983C34.1211 28.7983 34.4403 28.6387 34.6333 28.3529V28.7352H35.3014V27.206ZM32.8481 27.206C32.8481 26.6641 33.1969 26.2187 33.7722 26.2187C34.3141 26.2187 34.6964 26.6344 34.6964 27.206C34.6964 27.7479 34.3141 28.1933 33.7722 28.1933C33.1969 28.1599 32.8481 27.7442 32.8481 27.206ZM10.4818 27.206V25.6768H9.81367V26.0591C9.59097 25.7733 9.27177 25.6137 8.85607 25.6137C7.99497 25.6137 7.32688 26.2818 7.32688 27.206C7.32688 28.1302 7.99497 28.7983 8.85607 28.7983C9.30147 28.7983 9.62067 28.6387 9.81367 28.3529V28.7352H10.4818V27.206ZM7.99868 27.206C7.99868 26.6641 8.34758 26.2187 8.92288 26.2187C9.46478 26.2187 9.84707 26.6344 9.84707 27.206C9.84707 27.7479 9.46478 28.1933 8.92288 28.1933C8.34758 28.1599 7.99868 27.7442 7.99868 27.206Z" fill="white"/>
<path d="M23.5465 2.45312H13.5103V20.481H23.5465V2.45312Z" fill="#FF5A00"/>
<path d="M14.1784 11.4669C14.1784 7.80418 15.9006 4.55336 18.5433 2.45295C16.5984 0.924032 14.145 0 11.4689 0C5.12947 0 0 5.12857 0 11.4669C0 17.8053 5.12947 22.9338 11.4689 22.9338C14.145 22.9338 16.5984 22.0098 18.5433 20.4809C15.8969 18.4101 14.1784 15.1296 14.1784 11.4669Z" fill="#EB001B"/>
<path d="M37.0866 11.4669C37.0866 17.8053 31.9572 22.9338 25.6177 22.9338C22.9416 22.9338 20.4882 22.0098 18.5433 20.4809C21.2194 18.3767 22.9082 15.1296 22.9082 11.4669C22.9082 7.80418 21.186 4.55336 18.5433 2.45295C20.4845 0.924032 22.9379 0 25.614 0C31.9572 0 37.0866 5.16196 37.0866 11.4669Z" fill="#F79E1B"/>
<path d="M121.974 24.4688H116.967L120.098 5.10742H125.105L121.974 24.4688Z" fill="white"/>
<path d="M140.125 5.58113C139.137 5.18938 137.571 4.75684 135.634 4.75684C130.689 4.75684 127.207 7.39314 127.186 11.1623C127.145 13.9431 129.679 15.4877 131.574 16.4149C133.511 17.3624 134.17 17.9808 134.17 18.8253C134.15 20.1224 132.604 20.7203 131.163 20.7203C129.164 20.7203 128.093 20.412 126.465 19.6904L125.806 19.3811L125.105 23.7273C126.279 24.2622 128.443 24.7369 130.689 24.7577C135.943 24.7577 139.363 22.1622 139.404 18.1456C139.424 15.9416 138.086 14.2527 135.201 12.8727C133.45 11.9868 132.377 11.3895 132.377 10.4831C132.398 9.65905 133.284 8.81504 135.261 8.81504C136.889 8.77371 138.085 9.16491 138.991 9.55639L139.444 9.76198L140.125 5.58113Z" fill="white"/>
<path d="M146.78 17.6097C147.192 16.4975 148.779 12.1926 148.779 12.1926C148.758 12.2339 149.19 11.0598 149.438 10.339L149.788 12.0073C149.788 12.0073 150.736 16.6417 150.942 17.6097C150.159 17.6097 147.769 17.6097 146.78 17.6097ZM152.96 5.10742H149.087C147.893 5.10742 146.986 5.45729 146.47 6.71384L139.033 24.4685H144.287C144.287 24.4685 145.152 22.0789 145.338 21.5642C145.914 21.5642 151.025 21.5642 151.766 21.5642C151.91 22.2439 152.364 24.4685 152.364 24.4685H157L152.96 5.10742Z" fill="white"/>
<path d="M112.784 5.10742L107.881 18.31L107.345 15.6324C106.438 12.5427 103.595 9.18589 100.422 7.51678L104.914 24.4482H110.209L118.079 5.10742H112.784Z" fill="white"/>
<path d="M103.327 5.10742H95.2714L95.189 5.49862C101.473 7.10532 105.635 10.9782 107.345 15.6332L105.594 6.73492C105.305 5.49835 104.419 5.14821 103.327 5.10742Z" fill="#FAA61A"/>
<path d="M58.5484 28.8883V27.0168C58.5597 26.8594 58.5362 26.7015 58.4795 26.5535C58.4228 26.4056 58.3342 26.2711 58.2196 26.1589C58.1049 26.0468 57.9669 25.9595 57.8146 25.9031C57.6624 25.8466 57.4995 25.8223 57.3368 25.8316C57.1238 25.8182 56.911 25.8603 56.7206 25.9535C56.5302 26.0468 56.3691 26.1878 56.2541 26.3618C56.1493 26.193 55.9994 26.0546 55.8202 25.9613C55.641 25.868 55.4391 25.8232 55.2358 25.8316C55.0586 25.823 54.8822 25.8593 54.7239 25.937C54.5657 26.0147 54.4311 26.131 54.3336 26.2745V25.9064H53.6633V28.8883H54.34V27.2352C54.3254 27.1332 54.3343 27.0293 54.366 26.931C54.3978 26.8327 54.4517 26.7425 54.5238 26.6667C54.5959 26.591 54.6844 26.5316 54.783 26.493C54.8816 26.4543 54.9878 26.4372 55.094 26.443C55.5387 26.443 55.7643 26.7237 55.7643 27.2289V28.8883H56.441V27.2352C56.4275 27.1334 56.4371 27.0299 56.4693 26.9321C56.5015 26.8343 56.5554 26.7445 56.6273 26.669C56.6991 26.5935 56.7872 26.5341 56.8853 26.4951C56.9834 26.456 57.0891 26.4382 57.195 26.443C57.6526 26.443 57.8717 26.7237 57.8717 27.2289V28.8883H58.5484ZM62.325 27.3973V25.9064H61.6547V26.2682C61.5403 26.1255 61.3922 26.0114 61.2229 25.9355C61.0536 25.8595 60.868 25.8239 60.6815 25.8316C60.2662 25.8513 59.8747 26.0249 59.588 26.3163C59.3012 26.6078 59.1413 26.9949 59.1413 27.3974C59.1413 27.7998 59.3012 28.1869 59.588 28.4784C59.8747 28.7699 60.2662 28.9434 60.6815 28.9632C60.868 28.9709 61.0536 28.9352 61.2229 28.8593C61.3922 28.7833 61.5403 28.6692 61.6547 28.5265V28.8883H62.325V27.3973ZM59.8309 27.3973C59.8413 27.2214 59.9047 27.0522 60.0132 26.9107C60.1217 26.7692 60.2707 26.6615 60.4417 26.601C60.6127 26.5404 60.7982 26.5297 60.9755 26.57C61.1527 26.6103 61.3139 26.6999 61.4391 26.8279C61.5644 26.9558 61.6482 27.1164 61.6803 27.2899C61.7124 27.4634 61.6913 27.6421 61.6196 27.8042C61.548 27.9662 61.4289 28.1044 61.2771 28.2017C61.1253 28.299 60.9474 28.3511 60.7653 28.3518C60.6377 28.3534 60.5111 28.3295 60.3936 28.2814C60.276 28.2334 60.1699 28.1623 60.0821 28.0726C59.9944 27.983 59.9267 27.8767 59.8835 27.7604C59.8402 27.6442 59.8223 27.5206 59.8309 27.3973ZM76.6666 25.8281C76.8929 25.826 77.1175 25.8667 77.3276 25.948C77.5235 26.0237 77.7022 26.1358 77.8535 26.278C78.0024 26.4194 78.1206 26.5883 78.2009 26.7746C78.3683 27.174 78.3683 27.6207 78.2009 28.02C78.1206 28.2064 78.0025 28.3753 77.8535 28.5167C77.7022 28.659 77.5235 28.7711 77.3276 28.8467C76.9024 29.0066 76.4307 29.0066 76.0055 28.8467C75.8099 28.7713 75.6317 28.6592 75.4812 28.5167C75.3331 28.3749 75.2155 28.2061 75.1354 28.02C74.9682 27.6207 74.9682 27.174 75.1354 26.7746C75.2156 26.5886 75.3331 26.4198 75.4812 26.278C75.6317 26.1356 75.8099 26.0234 76.0055 25.948C76.2157 25.8667 76.4402 25.826 76.6666 25.8281ZM76.6666 26.4415C76.5355 26.4404 76.4054 26.4642 76.2838 26.5116C76.1692 26.5561 76.0652 26.6228 75.9782 26.7077C75.8907 26.7944 75.8217 26.897 75.7755 27.0098C75.6769 27.2594 75.6769 27.5354 75.7755 27.785C75.8217 27.8977 75.8906 28.0004 75.9782 28.0871C76.0652 28.1719 76.1692 28.2387 76.2838 28.2832C76.5299 28.3766 76.8033 28.3766 77.0493 28.2832C77.1643 28.2385 77.2687 28.1717 77.3565 28.0871C77.4449 28.0007 77.5144 27.898 77.5608 27.785C77.6595 27.5354 77.6595 27.2594 77.5608 27.0098C77.5144 26.8968 77.4449 26.7941 77.3565 26.7077C77.2687 26.623 77.1643 26.5563 77.0493 26.5116C76.9277 26.4642 76.7976 26.4404 76.6666 26.4415ZM65.972 27.3973C65.9656 26.4679 65.3727 25.8316 64.5091 25.8316C64.0911 25.8528 63.6978 26.0299 63.4118 26.3258C63.1258 26.6216 62.9693 27.0132 62.9751 27.4184C62.981 27.8235 63.1487 28.2107 63.4431 28.4987C63.7375 28.7868 64.1358 28.9532 64.5542 28.9631C65.014 28.9787 65.4637 28.83 65.8174 28.5452L65.4887 28.0648C65.2342 28.2622 64.919 28.372 64.5929 28.3767C64.3714 28.3947 64.1514 28.3287 63.9794 28.1924C63.8074 28.0562 63.6969 27.8606 63.6713 27.6469H65.9592C65.9656 27.5658 65.972 27.4847 65.972 27.3973ZM63.6778 27.1353C63.6895 26.9352 63.7817 26.7474 63.9347 26.6122C64.0876 26.4769 64.2892 26.405 64.4962 26.4117C64.6987 26.4079 64.8944 26.4819 65.0406 26.6176C65.1868 26.7532 65.2714 26.9394 65.276 27.1353H63.6778ZM68.7946 26.6675C68.5022 26.5047 68.1718 26.4167 67.8344 26.4117C67.467 26.4117 67.248 26.5427 67.248 26.7611C67.248 26.9607 67.4799 27.0168 67.77 27.0542L68.0857 27.0979C68.756 27.1915 69.162 27.4659 69.162 27.99C69.162 28.5576 68.6464 28.9632 67.7571 28.9632C67.2811 28.9759 66.8134 28.8403 66.423 28.5763L66.7388 28.0711C67.0346 28.2834 67.3955 28.3932 67.7635 28.383C68.2211 28.383 68.466 28.252 68.466 28.0212C68.466 27.8527 68.292 27.7592 67.9247 27.7093L67.6088 27.6656C66.9193 27.572 66.5455 27.2726 66.5455 26.786C66.5455 26.1934 67.0481 25.8316 67.828 25.8316C68.2691 25.8169 68.7053 25.9251 69.0847 26.1435L68.7946 26.6675ZM72.0152 26.4991H70.9197V27.8465C70.9197 28.1459 71.0292 28.3456 71.3643 28.3456C71.5735 28.3388 71.7775 28.2809 71.9573 28.1771L72.1506 28.7324C71.8993 28.884 71.6089 28.964 71.3128 28.9632C70.5201 28.9632 70.243 28.5514 70.243 27.859V26.4991H69.6178V25.9064H70.243L70.2428 25.002H70.9195L70.9197 25.9064H72.0152V26.4991ZM74.3348 25.8316C74.4974 25.8322 74.6587 25.8596 74.8117 25.9127L74.6055 26.524C74.4723 26.4727 74.3299 26.4473 74.1866 26.4492C73.7483 26.4492 73.5292 26.7237 73.5292 27.2164V28.8883H72.859V25.9064H73.5228V26.2682C73.605 26.1315 73.7239 26.0187 73.8668 25.9419C74.0097 25.865 74.1714 25.8269 74.3348 25.8316ZM78.9749 28.4542C79.0166 28.4539 79.0579 28.4619 79.0963 28.4775C79.1332 28.4924 79.1669 28.514 79.1955 28.5411C79.2239 28.5682 79.2466 28.6003 79.2623 28.6357C79.2785 28.6721 79.2868 28.7112 79.2868 28.7508C79.2868 28.7904 79.2785 28.8296 79.2623 28.8659C79.2465 28.9011 79.2238 28.9331 79.1955 28.9601C79.1668 28.9872 79.1332 29.0089 79.0963 29.0241C79.058 29.04 79.0166 29.048 78.9749 29.0477C78.9135 29.0483 78.8533 29.0314 78.8018 28.9991C78.7503 28.9667 78.7097 28.9204 78.6853 28.8659C78.6692 28.8295 78.6609 28.7904 78.6609 28.7508C78.6609 28.7112 78.6692 28.6721 78.6853 28.6357C78.701 28.6004 78.7236 28.5682 78.7518 28.5411C78.7804 28.5138 78.8142 28.4922 78.8513 28.4775C78.8905 28.4618 78.9325 28.4539 78.9749 28.4542ZM78.9749 28.9823C79.0067 28.9825 79.0382 28.9763 79.0674 28.9641C79.0954 28.9523 79.1209 28.9355 79.1425 28.9146C79.1702 28.8879 79.1907 28.855 79.2021 28.8188C79.2136 28.7827 79.2157 28.7443 79.2083 28.7071C79.2009 28.67 79.1842 28.6351 79.1596 28.6057C79.135 28.5762 79.1034 28.5531 79.0674 28.5383C79.0382 28.5262 79.0067 28.5201 78.9749 28.5204C78.9426 28.5202 78.9105 28.5262 78.8806 28.5383C78.8521 28.5496 78.8262 28.5663 78.8044 28.5873C78.7598 28.6308 78.7348 28.6896 78.7348 28.751C78.7348 28.8123 78.7598 28.8711 78.8044 28.9146C78.8268 28.9362 78.8534 28.9533 78.8827 28.9649C78.9119 28.9765 78.9433 28.9824 78.9749 28.9823ZM78.993 28.612C79.0231 28.6101 79.0531 28.6185 79.0775 28.6357C79.0873 28.6435 79.095 28.6533 79.1002 28.6645C79.1053 28.6757 79.1077 28.6878 79.1072 28.7001C79.1075 28.7105 79.1056 28.7209 79.1015 28.7306C79.0975 28.7403 79.0913 28.7491 79.0835 28.7564C79.0649 28.7725 79.0412 28.7821 79.0163 28.7837L79.1094 28.8877H79.0366L78.9502 28.7844H78.9223V28.8877H78.8615V28.612H78.993ZM78.9223 28.6637V28.7372H78.9922C79.0057 28.7378 79.019 28.7346 79.0306 28.728C79.0353 28.725 79.0391 28.7208 79.0416 28.7159C79.0441 28.711 79.0452 28.7055 79.0448 28.7001C79.0451 28.6947 79.044 28.6894 79.0415 28.6846C79.039 28.6798 79.0352 28.6757 79.0306 28.6727C79.019 28.6662 79.0057 28.6631 78.9922 28.6637H78.9223Z" fill="white"/>
<path d="M71.1523 2.44922H61.1239V20.4673H71.1523V2.44922Z" fill="#7375CF"/>
<path d="M61.7606 11.459C61.7591 9.72371 62.1523 8.01082 62.9107 6.44999C63.6691 4.88915 64.7728 3.52128 66.1381 2.44993C64.4473 1.12121 62.4168 0.294902 60.2786 0.0654445C58.1404 -0.164013 55.9807 0.212644 54.0464 1.15236C52.1122 2.09208 50.4814 3.55694 49.3405 5.37952C48.1995 7.20209 47.5945 9.30885 47.5945 11.459C47.5945 13.6091 48.1995 15.7159 49.3405 17.5384C50.4814 19.361 52.1122 20.8259 54.0464 21.7656C55.9807 22.7053 58.1404 23.082 60.2786 22.8525C62.4168 22.6231 64.4473 21.7967 66.1381 20.468C64.7728 19.3967 63.6691 18.0288 62.9107 16.468C62.1524 14.9071 61.7591 13.1942 61.7606 11.459Z" fill="#EB001B"/>
<path d="M83.5875 18.5601V18.1911H83.7363V18.116H83.3574V18.1911H83.5063V18.5601H83.5875ZM84.3231 18.5601V18.1152H84.207L84.0734 18.4212L83.9398 18.1152H83.8236V18.5601H83.9056V18.2245L84.0308 18.5138H84.1159L84.2412 18.2238V18.5601H84.3231Z" fill="#00A2E5"/>
<path d="M84.6811 11.459C84.6811 13.6091 84.0762 15.7158 82.9353 17.5384C81.7944 19.361 80.1637 20.8259 78.2295 21.7656C76.2953 22.7053 74.1356 23.082 71.9974 22.8525C69.8592 22.6231 67.8288 21.7968 66.1381 20.468C67.5022 19.3956 68.6049 18.0275 69.3632 16.4669C70.1215 14.9063 70.5155 13.194 70.5155 11.459C70.5155 9.72398 70.1215 8.01163 69.3632 6.45105C68.6049 4.89046 67.5022 3.52236 66.1381 2.44993C67.8288 1.12121 69.8592 0.294897 71.9974 0.0654424C74.1356 -0.164012 76.2953 0.212651 78.2295 1.15238C80.1637 2.09211 81.7944 3.55698 82.9353 5.37955C84.0762 7.20213 84.6811 9.30888 84.6811 11.459Z" fill="#00A2E5"/>
</svg>
